<svg width="512" height="512" viewBox="0 0 512 512" fill="none" xmlns="http://www.w3.org/2000/svg">
  <!-- Background -->
  <rect width="512" height="512" rx="64" fill="#ea580c"/>
  
  <!-- Tire outer ring -->
  <circle cx="256" cy="256" r="200" fill="none" stroke="#ffffff" stroke-width="20"/>
  
  <!-- Tire middle ring -->
  <circle cx="256" cy="256" r="130" fill="none" stroke="#ffffff" stroke-width="15"/>
  
  <!-- Tire inner hub -->
  <circle cx="256" cy="256" r="75" fill="#ffffff"/>
  
  <!-- Hub center -->
  <circle cx="256" cy="256" r="35" fill="#ea580c"/>
  
  <!-- Brand text -->
  <text x="256" y="110" font-family="Arial, sans-serif" font-size="42" font-weight="bold" text-anchor="middle" fill="#ffffff">BANDEN</text>
  <text x="256" y="430" font-family="Arial, sans-serif" font-size="42" font-weight="bold" text-anchor="middle" fill="#ffffff">CENTRALE</text>
  
  <!-- Tread pattern lines -->
  <line x1="256" y1="56" x2="256" y2="90" stroke="#ffffff" stroke-width="12" stroke-linecap="round"/>
  <line x1="256" y1="422" x2="256" y2="456" stroke="#ffffff" stroke-width="12" stroke-linecap="round"/>
  <line x1="56" y1="256" x2="90" y2="256" stroke="#ffffff" stroke-width="12" stroke-linecap="round"/>
  <line x1="422" y1="256" x2="456" y2="256" stroke="#ffffff" stroke-width="12" stroke-linecap="round"/>
  
  <!-- Diagonal tread lines -->
  <line x1="120" y1="120" x2="160" y2="160" stroke="#ffffff" stroke-width="10" stroke-linecap="round"/>
  <line x1="352" y1="352" x2="392" y2="392" stroke="#ffffff" stroke-width="10" stroke-linecap="round"/>
  <line x1="392" y1="120" x2="352" y2="160" stroke="#ffffff" stroke-width="10" stroke-linecap="round"/>
  <line x1="160" y1="352" x2="120" y2="392" stroke="#ffffff" stroke-width="10" stroke-linecap="round"/>
  
  <!-- Additional smaller tread marks -->
  <line x1="256" y1="90" x2="256" y2="120" stroke="#ffffff" stroke-width="8" stroke-linecap="round"/>
  <line x1="256" y1="392" x2="256" y2="422" stroke="#ffffff" stroke-width="8" stroke-linecap="round"/>
  <line x1="90" y1="256" x2="120" y2="256" stroke="#ffffff" stroke-width="8" stroke-linecap="round"/>
  <line x1="392" y1="256" x2="422" y2="256" stroke="#ffffff" stroke-width="8" stroke-linecap="round"/>
  
  <!-- Intermediate diagonal marks -->
  <line x1="180" y1="180" x2="200" y2="200" stroke="#ffffff" stroke-width="6" stroke-linecap="round"/>
  <line x1="312" y1="312" x2="332" y2="332" stroke="#ffffff" stroke-width="6" stroke-linecap="round"/>
  <line x1="332" y1="180" x2="312" y2="200" stroke="#ffffff" stroke-width="6" stroke-linecap="round"/>
  <line x1="200" y1="312" x2="180" y2="332" stroke="#ffffff" stroke-width="6" stroke-linecap="round"/>
</svg>
